<svg xmlns="http://www.w3.org/2000/svg" viewBox="0 0 260 82" fill="none">
  <defs>
    <linearGradient id="barGrad" x1="0" y1="1" x2="0" y2="0">
      <stop offset="0%" stop-color="#C2E8FB"/>
      <stop offset="70%" stop-color="#C2E8FB"/>
      <stop offset="100%" stop-color="#7ECEF5"/>
    </linearGradient>
    <linearGradient id="lineGrad" x1="0" y1="0" x2="1" y2="0">
      <stop offset="0%" stop-color="#7ECEF5" stop-opacity="0.5"/>
      <stop offset="100%" stop-color="#7ECEF5"/>
    </linearGradient>
  </defs>

  <!-- "NOV" — Montserrat SemiBold 600 exact outlines, white for dark backgrounds -->
  <path d="M13.37 48L7.95 48L7.95 18.60L12.44 18.60L30.88 41.24L28.65 41.24L28.65 18.60L34.07 18.60L34.07 48L29.58 48L11.14 25.36L13.37 25.36L13.37 48ZM56.74 48.42L56.74 48.42Q53.30 48.42 50.40 47.29Q47.50 46.15 45.36 44.12Q43.22 42.08 42.04 39.33Q40.87 36.58 40.87 33.30L40.87 33.30Q40.87 30.02 42.04 27.27Q43.22 24.52 45.36 22.48Q47.50 20.45 50.40 19.31Q53.30 18.18 56.70 18.18L56.70 18.18Q60.15 18.18 63.02 19.31Q65.90 20.45 68.04 22.48Q70.18 24.52 71.36 27.27Q72.54 30.02 72.54 33.30L72.54 33.30Q72.54 36.58 71.36 39.35Q70.18 42.12 68.04 44.14Q65.90 46.15 63.02 47.29Q60.15 48.42 56.74 48.42ZM56.70 43.63L56.70 43.63Q58.93 43.63 60.82 42.88Q62.71 42.12 64.09 40.71Q65.48 39.31 66.26 37.44Q67.03 35.57 67.03 33.30L67.03 33.30Q67.03 31.03 66.26 29.16Q65.48 27.29 64.09 25.89Q62.71 24.48 60.82 23.72Q58.93 22.97 56.70 22.97L56.70 22.97Q54.48 22.97 52.61 23.72Q50.74 24.48 49.33 25.89Q47.92 27.29 47.15 29.16Q46.37 31.03 46.37 33.30L46.37 33.30Q46.37 35.53 47.15 37.42Q47.92 39.31 49.31 40.71Q50.70 42.12 52.59 42.88Q54.48 43.63 56.70 43.63ZM93.40 48L88.03 48L75.17 18.60L81.10 18.60L92.56 45.19L89.16 45.19L100.75 18.60L106.21 18.60L93.40 48Z" fill="#FFFFFF"/>

  <!-- Ascending graph icon replacing "A" — matched to letter cap height -->
  <g transform="translate(109, 0)">
    <rect x="0"  y="41" width="6" height="7"  rx="1" fill="url(#barGrad)"/>
    <rect x="8"  y="35" width="6" height="13" rx="1" fill="url(#barGrad)"/>
    <rect x="16" y="27" width="6" height="21" rx="1" fill="url(#barGrad)"/>
    <rect x="24" y="19" width="6" height="29" rx="1" fill="url(#barGrad)"/>

    <polyline
      points="3,39 11,33 19,25 27,17"
      stroke="url(#lineGrad)"
      stroke-width="1.8"
      stroke-linecap="round"
      stroke-linejoin="round"
      fill="none"
    />

    <circle cx="27" cy="17" r="1.8" fill="#7ECEF5" opacity="0.8"/>
  </g>

  <!-- "RIS" — Montserrat SemiBold 600 exact outlines, white for dark backgrounds -->
  <path d="M152.41 48L146.95 48L146.95 18.60L159.00 18.60Q164.88 18.60 168.22 21.37Q171.56 24.14 171.56 29.06L171.56 29.06Q171.56 32.29 170.05 34.62Q168.54 36.95 165.75 38.19Q162.95 39.43 159.05 39.43L159.05 39.43L149.97 39.43L152.41 36.95L152.41 48ZM172.07 48L166.19 48L158.75 37.33L164.59 37.33L172.07 48ZM152.41 20.53L152.41 37.54L149.97 34.94L158.79 34.94Q162.41 34.94 164.23 33.38Q166.06 31.83 166.06 29.06L166.06 29.06Q166.06 26.24 164.23 24.73Q162.41 23.22 158.79 23.22L158.79 23.22L149.97 23.22L152.41 20.53ZM184.11 48L178.65 48L178.65 18.60L184.11 18.60L184.11 48ZM202.16 48.42L202.16 48.42Q198.72 48.42 195.57 47.43Q192.42 46.45 190.57 44.89L190.57 44.89L192.46 40.65Q194.23 42.04 196.83 42.96Q199.43 43.88 202.16 43.88L202.16 43.88Q204.47 43.88 205.90 43.38Q207.33 42.88 208.00 42.02Q208.67 41.15 208.67 40.06L208.67 40.06Q208.67 38.72 207.71 37.90Q206.74 37.08 205.21 36.60Q203.68 36.11 201.81 35.69Q199.94 35.27 198.07 34.71Q196.20 34.14 194.67 33.24Q193.13 32.33 192.17 30.82Q191.20 29.31 191.20 26.96L191.20 26.96Q191.20 24.56 192.48 22.57Q193.76 20.57 196.39 19.38Q199.01 18.18 203.05 18.18L203.05 18.18Q205.69 18.18 208.30 18.85Q210.90 19.52 212.83 20.78L212.83 20.78L211.11 25.03Q209.14 23.85 207.04 23.28Q204.94 22.72 203.00 22.72L203.00 22.72Q200.74 22.72 199.33 23.26Q197.92 23.81 197.27 24.69Q196.62 25.57 196.62 26.71L196.62 26.71Q196.62 28.05 197.56 28.87Q198.51 29.69 200.04 30.15Q201.58 30.61 203.47 31.05Q205.36 31.49 207.22 32.04Q209.09 32.59 210.63 33.47Q212.16 34.35 213.11 35.86Q214.05 37.37 214.05 39.68L214.05 39.68Q214.05 42.04 212.77 44.03Q211.49 46.03 208.84 47.22Q206.20 48.42 202.16 48.42Z" fill="#FFFFFF"/>

  <!-- Decorative lines + "CONSULTING" — Inter Regular 400 exact outlines, centered under NOVARIS -->
  <line x1="22" y1="63" x2="42" y2="63" stroke="#7B93AD" stroke-width="0.7" opacity="0.45"/>
  <path d="M49.13 67.11L49.13 67.11Q48.06 67.11 47.22 66.59Q46.38 66.07 45.90 65.11Q45.42 64.15 45.42 62.82L45.42 62.82Q45.42 61.49 45.90 60.53Q46.38 59.57 47.22 59.04Q48.06 58.52 49.13 58.52L49.13 58.52Q49.76 58.52 50.33 58.71Q50.89 58.89 51.34 59.25Q51.79 59.60 52.09 60.11Q52.39 60.62 52.51 61.27L52.51 61.27L51.44 61.27Q51.35 60.83 51.13 60.51Q50.92 60.18 50.60 59.96Q50.29 59.73 49.92 59.62Q49.54 59.51 49.13 59.51L49.13 59.51Q48.38 59.51 47.77 59.89Q47.17 60.27 46.81 61.01Q46.46 61.75 46.46 62.82L46.46 62.82Q46.46 63.89 46.81 64.63Q47.17 65.37 47.78 65.74Q48.38 66.12 49.13 66.12L49.13 66.12Q49.54 66.12 49.92 66.01Q50.29 65.89 50.60 65.67Q50.92 65.45 51.13 65.12Q51.35 64.79 51.44 64.37L51.44 64.37L52.51 64.37Q52.40 65.01 52.10 65.51Q51.80 66.02 51.35 66.38Q50.90 66.74 50.33 66.92Q49.77 67.11 49.13 67.11ZM63.04 67.11L63.04 67.11Q61.96 67.11 61.12 66.59Q60.28 66.07 59.80 65.11Q59.32 64.15 59.32 62.82L59.32 62.82Q59.32 61.49 59.80 60.53Q60.28 59.57 61.12 59.04Q61.96 58.52 63.04 58.52L63.04 58.52Q64.11 58.52 64.95 59.04Q65.78 59.57 66.26 60.53Q66.74 61.49 66.74 62.82L66.74 62.82Q66.74 64.15 66.26 65.11Q65.78 66.07 64.95 66.59Q64.11 67.11 63.04 67.11ZM63.04 66.12L63.04 66.12Q63.78 66.12 64.39 65.74Q64.99 65.37 65.35 64.63Q65.70 63.89 65.70 62.82L65.70 62.82Q65.70 61.74 65.35 61.01Q64.99 60.27 64.39 59.89Q63.78 59.51 63.04 59.51L63.04 59.51Q62.28 59.51 61.68 59.89Q61.07 60.27 60.71 61.01Q60.36 61.75 60.36 62.82L60.36 62.82Q60.36 63.89 60.71 64.62Q61.07 65.36 61.68 65.74Q62.28 66.12 63.04 66.12ZM75.01 67L73.94 67L73.94 58.63L75.20 58.63L78.60 63.98Q78.73 64.19 78.92 64.52Q79.12 64.84 79.34 65.25Q79.56 65.66 79.77 66.13L79.77 66.13L79.62 66.13Q79.57 65.65 79.55 65.21Q79.53 64.77 79.52 64.39Q79.51 64.02 79.51 63.77L79.51 63.77L79.51 58.63L80.58 58.63L80.58 67L79.31 67L76.28 62.24Q76.07 61.91 75.86 61.56Q75.65 61.21 75.38 60.72Q75.11 60.24 74.71 59.54L74.71 59.54L74.91 59.54Q74.94 60.16 74.96 60.69Q74.98 61.22 75.00 61.61Q75.01 62.00 75.01 62.23L75.01 62.23L75.01 67ZM90.78 67.15L90.78 67.15Q89.88 67.15 89.21 66.85Q88.55 66.56 88.17 66.04Q87.79 65.51 87.74 64.81L87.74 64.81L88.84 64.81Q88.88 65.28 89.16 65.59Q89.43 65.89 89.86 66.04Q90.29 66.19 90.78 66.19L90.78 66.19Q91.35 66.19 91.80 66.01Q92.25 65.82 92.52 65.48Q92.78 65.15 92.78 64.70L92.78 64.70Q92.78 64.30 92.55 64.05Q92.33 63.79 91.95 63.63Q91.57 63.47 91.12 63.34L91.12 63.34L90.11 63.06Q89.10 62.77 88.54 62.24Q87.98 61.70 87.98 60.87L87.98 60.87Q87.98 60.17 88.36 59.64Q88.74 59.10 89.39 58.81Q90.05 58.52 90.85 58.52L90.85 58.52Q91.68 58.52 92.31 58.81Q92.95 59.10 93.32 59.61Q93.68 60.11 93.71 60.74L93.71 60.74L92.66 60.74Q92.59 60.13 92.08 59.80Q91.57 59.46 90.82 59.46L90.82 59.46Q90.28 59.46 89.87 59.64Q89.47 59.82 89.24 60.12Q89.02 60.43 89.02 60.82L89.02 60.82Q89.02 61.26 89.29 61.53Q89.56 61.79 89.94 61.94Q90.31 62.09 90.61 62.18L90.61 62.18L91.45 62.41Q91.79 62.50 92.19 62.65Q92.60 62.81 92.97 63.07Q93.34 63.33 93.58 63.73Q93.82 64.14 93.82 64.72L93.82 64.72Q93.82 65.41 93.46 65.96Q93.11 66.51 92.43 66.83Q91.75 67.15 90.78 67.15ZM104.25 67.13L104.25 67.13Q103.27 67.13 102.53 66.75Q101.79 66.36 101.39 65.69Q100.98 65.01 100.98 64.15L100.98 64.15L100.98 58.63L102.05 58.63L102.05 64.07Q102.05 64.67 102.31 65.14Q102.58 65.61 103.08 65.88Q103.57 66.15 104.25 66.15L104.25 66.15Q104.94 66.15 105.43 65.88Q105.92 65.61 106.19 65.14Q106.45 64.67 106.45 64.07L106.45 64.07L106.45 58.63L107.52 58.63L107.52 64.15Q107.52 65.01 107.11 65.69Q106.71 66.36 105.98 66.75Q105.24 67.13 104.25 67.13ZM119.98 67L115.04 67L115.04 58.63L116.11 58.63L116.11 66.06L119.98 66.06L119.98 67ZM129.21 59.58L126.58 59.58L126.58 58.63L132.90 58.63L132.90 59.58L130.28 59.58L130.28 67L129.21 67L129.21 59.58ZM139.96 58.63L141.03 58.63L141.03 67L139.96 67L139.96 58.63ZM149.63 67L148.55 67L148.55 58.63L149.81 58.63L153.21 63.98Q153.35 64.19 153.54 64.52Q153.73 64.84 153.95 65.25Q154.17 65.66 154.39 66.13L154.39 66.13L154.24 66.13Q154.18 65.65 154.16 65.21Q154.14 64.77 154.13 64.39Q154.13 64.02 154.13 63.77L154.13 63.77L154.13 58.63L155.20 58.63L155.20 67L153.93 67L150.89 62.24Q150.69 61.91 150.48 61.56Q150.27 61.21 150.00 60.72Q149.73 60.24 149.33 59.54L149.33 59.54L149.52 59.54Q149.55 60.16 149.57 60.69Q149.60 61.22 149.61 61.61Q149.63 62.00 149.63 62.23L149.63 62.23L149.63 67ZM166.14 67.11L166.14 67.11Q165.02 67.11 164.18 66.59Q163.33 66.07 162.86 65.10Q162.39 64.14 162.39 62.82L162.39 62.82Q162.39 61.49 162.86 60.53Q163.33 59.57 164.17 59.04Q165.00 58.52 166.07 58.52L166.07 58.52Q166.73 58.52 167.31 58.72Q167.88 58.91 168.34 59.28Q168.79 59.64 169.09 60.15Q169.39 60.65 169.51 61.26L169.51 61.26L168.41 61.26Q168.28 60.85 168.06 60.53Q167.85 60.21 167.55 59.98Q167.26 59.75 166.89 59.63Q166.52 59.51 166.07 59.51L166.07 59.51Q165.34 59.51 164.74 59.89Q164.14 60.27 163.78 61.01Q163.43 61.74 163.43 62.82L163.43 62.82Q163.43 63.89 163.79 64.62Q164.14 65.36 164.76 65.74Q165.37 66.12 166.14 66.12L166.14 66.12Q166.84 66.12 167.38 65.82Q167.92 65.52 168.22 64.97Q168.52 64.42 168.52 63.66L168.52 63.66L168.84 63.73L166.36 63.73L166.36 62.79L169.57 62.79L169.57 63.71Q169.57 64.75 169.12 65.51Q168.68 66.28 167.91 66.69Q167.14 67.11 166.14 67.11Z" fill="#8AAAC8"/>
  <line x1="173" y1="63" x2="195" y2="63" stroke="#7B93AD" stroke-width="0.7" opacity="0.45"/>
</svg>